<svg width="512" height="512" viewBox="0 0 512 512" fill="none" xmlns="http://www.w3.org/2000/svg">
<g clip-path="url(#clip0_401_2)">
<path d="M130.7 278.6L115.3 294L102.6 281.3C90.1 268.8 69.8 268.8 57.3 281.3L41.3 297.3C31.9 306.7 29.3 320.8 34.7 332.9L57.8 384.8L9.4 433.4C-3.1 445.9 -3.1 466.2 9.4 478.7L33.4 502.7C45.9 515.2 66.2 515.2 78.7 502.7L127.2 454.2L179 477.2C191.1 482.6 205.3 479.9 214.6 470.6L230.6 454.6C243.1 442.1 243.1 421.8 230.6 409.3L217.9 396.6L233.3 381.2L210.7 358.6L195.3 374L137.9 316.6L153.3 301.2L130.7 278.6ZM358.6 210.7L381.2 233.3L491.1 123.5C499 115.6 503.9 105.1 505 93.9L512 17.4C512.4 12.7 510.7 8.00001 507.4 4.60001C504.1 1.20001 499.4 -0.499992 494.6 7.55489e-06L418.1 7.00001C406.9 8.00001 396.4 12.9 388.5 20.9L278.6 130.7L301.2 153.3L411.1 43.5C413.7 40.9 417.2 39.2 421 38.9L478.3 33.7L473.1 91C472.8 94.7 471.1 98.2 468.5 100.9L358.6 210.7ZM64 320L80 304L208 432L192 448L130 420.5C124 417.8 116.9 419.1 112.2 423.8L56 480L32 456L88.2 399.8C92.9 395.1 94.2 388 91.5 382L64 320ZM38.9 91L33.7 33.7L91 38.9C94.7 39.2 98.2 40.9 100.9 43.5L354.7 297.4L377.3 274.8L123.5 20.9C115.6 12.9 105.1 8.00001 93.9 7.00001L17.4 0.100008C12.7 -0.399992 8 1.30001 4.7 4.70001C1.4 8.10001 -0.399995 12.7 0.100005 17.4L7 93.9C8 105.1 12.9 115.6 20.9 123.5L274.7 377.4L297.3 354.8L43.5 100.9C40.9 98.3 39.2 94.8 38.9 91ZM409.4 281.4L281.4 409.4C268.9 421.9 268.9 442.2 281.4 454.7L297.4 470.7C306.8 480.1 320.9 482.7 333 477.3L384.9 454.2L433.4 502.7C445.9 515.2 466.2 515.2 478.7 502.7L502.7 478.7C515.2 466.2 515.2 445.9 502.7 433.4L454.2 384.9L477.2 333C482.6 320.9 479.9 306.7 470.6 297.4L454.6 281.4C442.1 268.9 421.8 268.9 409.3 281.4H409.4ZM432 304L448 320L420.5 382C417.8 388.1 419.1 395.1 423.8 399.8L480 456L456 480L399.8 423.8C395.1 419.1 388 417.8 382 420.5L320 448L304 432L432 304Z" fill="white"/>
</g>
<defs>
<clipPath id="clip0_401_2">
<rect width="512" height="512" fill="white"/>
</clipPath>
</defs>
</svg>
