<svg width="512" height="512" viewBox="0 0 512 512" fill="none" xmlns="http://www.w3.org/2000/svg">
<g clip-path="url(#clip0_401_4)">
<path d="M19.1 0.300008C13.9 -0.699992 8.50001 0.900007 4.70001 4.70001C0.900007 8.50001 -0.699992 13.9 0.300008 19.1L14.4 89.6C16.3 98.9 20.8 107.4 27.5 114.1L329.4 416L416 329.4L114.2 27.5C107.5 20.8 99 16.2 89.7 14.4L19.1 0.300008ZM146.7 278.6L96 329.4L182.6 416L233.3 365.3L146.7 278.7V278.6ZM365.2 233.3L484.5 114.2C491.2 107.5 495.8 99 497.6 89.7L511.7 19.2C512.7 14 511.1 8.50001 507.3 4.70001C503.5 0.900007 498.1 -0.699992 492.8 0.300008L422.4 14.4C413.1 16.3 404.6 20.8 397.9 27.5L278.6 146.7L365.2 233.3Z" fill="url(#paint0_linear_401_4)"/>
<path d="M75.3 308.7C69.1 302.5 58.9 302.5 52.7 308.7L36.7 324.7C32 329.4 30.7 336.5 33.4 342.5L60.9 404.5L4.69999 460.7C-1.50001 466.9 -1.50001 477.1 4.69999 483.3L28.7 507.3C34.9 513.5 45.1 513.5 51.3 507.3L107.5 451.1L169.5 478.6C175.5 481.3 182.6 480 187.3 475.3L203.3 459.3C209.5 453.1 209.5 442.9 203.3 436.7L75.3 308.7ZM436.7 308.7L308.7 436.7C302.5 442.9 302.5 453.1 308.7 459.3L324.7 475.3C329.4 480 336.5 481.3 342.5 478.6L404.5 451.1L460.7 507.3C466.9 513.5 477.1 513.5 483.3 507.3L507.3 483.3C513.5 477.1 513.5 466.9 507.3 460.7L451.1 404.5L478.6 342.5C481.3 336.4 480 329.4 475.3 324.7L459.3 308.7C453.1 302.5 442.9 302.5 436.7 308.7Z" fill="black"/>
</g>
<defs>
<linearGradient id="paint0_linear_401_4" x1="256" y1="0.00863647" x2="256" y2="416" gradientUnits="userSpaceOnUse">
<stop stop-color="#FFC700"/>
<stop offset="1" stop-color="#727272"/>
</linearGradient>
<clipPath id="clip0_401_4">
<rect width="512" height="512" fill="white"/>
</clipPath>
</defs>
</svg>
